<svg width="500" height="500" viewBox="0 0 500 500" fill="none" xmlns="http://www.w3.org/2000/svg">
<circle cx="250" cy="250" r="248.5" stroke="#004AAD" stroke-width="3"/>
<ellipse cx="180" cy="213.5" rx="28" ry="27.5" fill="#004AAD"/>
<circle cx="250.5" cy="219.5" r="29.5" fill="#004AAD"/>
<circle cx="316.5" cy="213.5" r="29.5" fill="#004AAD"/>
<path d="M366 297.5C366 283.841 360.785 270.742 351.502 261.084C342.219 251.426 329.628 246 316.5 246C303.372 246 290.781 251.426 281.498 261.084C272.215 270.742 267 283.841 267 297.5L316.5 297.5H366Z" fill="#004AAD"/>
<path d="M302 310.5C302 295.78 296.416 281.664 286.477 271.256C276.537 260.847 263.056 255 249 255C234.944 255 221.463 260.847 211.523 271.256C201.584 281.664 196 295.78 196 310.5L249 310.5H302Z" fill="#004AAD"/>
<path d="M233 298.5C233 284.576 227.416 271.223 217.477 261.377C207.537 251.531 194.056 246 180 246C165.944 246 152.463 251.531 142.523 261.377C132.584 271.223 127 284.576 127 298.5L180 298.5H233Z" fill="#004AAD"/>
<path fill-rule="evenodd" clip-rule="evenodd" d="M248 377C257.941 377 266 368.941 266 359H453C453 378.882 436.882 395 417 395H84C64.1177 395 48 378.882 48 359H230C230 368.941 238.059 377 248 377Z" fill="#004AAD"/>
<path fill-rule="evenodd" clip-rule="evenodd" d="M117 321V146H380V321H117ZM77 136C77 119.431 90.4315 106 107 106H390C406.569 106 420 119.431 420 136V331C420 347.569 406.569 361 390 361H265.89C265.963 360.343 266 359.676 266 359C266 349.059 257.941 341 248 341C238.059 341 230 349.059 230 359C230 359.676 230.037 360.343 230.11 361H107C90.4315 361 77 347.569 77 331V136Z" fill="#004AAD"/>
</svg>
