<svg width="28" height="26" viewBox="0 0 28 26" fill="none" xmlns="http://www.w3.org/2000/svg">
<path d="M7 7C7 6.44772 7.44772 6 8 6H25.691C26.1378 6 26.5 6.36221 26.5 6.80902V6.85765C26.5 6.95126 26.5218 7.04359 26.5637 7.12732V7.12732C26.7641 7.52826 26.4726 8 26.0243 8H8C7.44772 8 7 7.55228 7 7V7Z" fill="#D9D9D9"/>
<path d="M8.07944 17C8.07944 16.4477 8.52715 16 9.07944 16H23.0794C23.6317 16 24.0794 16.4477 24.0794 17V17C24.0794 17.5523 23.6317 18 23.0794 18H9.07944C8.52715 18 8.07944 17.5523 8.07944 17V17Z" fill="#D9D9D9"/>
<path d="M26.2015 6.05164C26.7339 6.19876 27.0461 6.74956 26.899 7.28189L24.1588 17.1971C24.0043 17.7561 23.4081 18.0669 22.8613 17.8734L22.4132 17.7148C22.3827 17.7041 22.3507 17.6986 22.3184 17.6986V17.6986C22.1307 17.6986 21.9946 17.5197 22.0446 17.3388L24.9713 6.74912C25.1184 6.21679 25.6692 5.90452 26.2015 6.05164V6.05164Z" fill="#D9D9D9"/>
<path d="M7.04292 2.03044C6.49469 2.06403 6.07233 2.53376 6.10168 3.08224L6.89054 17.8232C6.8968 17.9401 6.92387 18.0558 6.96978 18.1635C8.06202 20.7275 8.71182 22.4566 8.52635 21.1694C8.51032 21.0582 8.50986 20.9435 8.52918 20.8327L9.00606 18.099C9.01947 18.0221 9.02383 17.9439 9.01906 17.8659L8.10608 2.96717C8.0723 2.41592 7.59418 1.99666 7.04292 2.03044V2.03044Z" fill="#D9D9D9"/>
<path d="M0.637636 1.55234C0.52025 2.092 0.862576 2.62465 1.40224 2.74203L6.86046 3.92928C7.40012 4.04667 7.93277 3.70434 8.05015 3.16467V3.16467C8.16754 2.62501 7.82521 2.09236 7.28555 1.97498L1.82733 0.787732C1.28767 0.670347 0.755021 1.01267 0.637636 1.55234V1.55234Z" fill="#D9D9D9"/>
<path d="M7.93419 17.3567C7.41824 17.5538 7.15969 18.1317 7.3567 18.6477L8.36682 21.293V21.293C8.55365 22.0918 9.66566 22.1568 9.94429 21.3852L10.1127 20.9188C10.1918 20.7 10.1896 20.46 10.1066 20.2426L9.22512 17.9342C9.02811 17.4183 8.45014 17.1597 7.93419 17.3567V17.3567Z" fill="#D9D9D9"/>
<path d="M9.00001 22.0002C9.78185 22.064 18.157 22.0268 23.0061 22.0047C23.5566 22.0022 24 21.5529 24 21.0024V21.0024C24 20.4501 23.5523 20.0002 23 20.0002H9.00001V20.0002C8.7771 20.0002 8.20036 20.7288 8.25333 20.9453C8.37593 21.4465 8.58074 21.9659 9.00001 22.0002Z" fill="#D9D9D9"/>
<rect width="3" height="3" rx="1" transform="matrix(1 0 0 -1 18 26)" fill="#FFFFFF"/>
<rect width="3" height="3" rx="1" transform="matrix(1 0 0 -1 10 26)" fill="#FFFFFF"/>
</svg>
